{
	"patcher" : 	{
		"fileversion" : 1,
		"appversion" : 		{
			"major" : 7,
			"minor" : 3,
			"revision" : 4,
			"architecture" : "x86",
			"modernui" : 1
		}
,
		"rect" : [ 139.0, 131.0, 1237.0, 721.0 ],
		"bglocked" : 0,
		"openinpresentation" : 0,
		"default_fontsize" : 12.0,
		"default_fontface" : 0,
		"default_fontname" : "Arial",
		"gridonopen" : 1,
		"gridsize" : [ 15.0, 15.0 ],
		"gridsnaponopen" : 1,
		"objectsnaponopen" : 1,
		"statusbarvisible" : 2,
		"toolbarvisible" : 1,
		"lefttoolbarpinned" : 0,
		"toptoolbarpinned" : 0,
		"righttoolbarpinned" : 0,
		"bottomtoolbarpinned" : 0,
		"toolbars_unpinned_last_save" : 0,
		"tallnewobj" : 0,
		"boxanimatetime" : 200,
		"enablehscroll" : 1,
		"enablevscroll" : 1,
		"devicewidth" : 0.0,
		"description" : "",
		"digest" : "",
		"tags" : "",
		"style" : "",
		"subpatcher_template" : "",
		"boxes" : [ 			{
				"box" : 				{
					"id" : "obj-8",
					"maxclass" : "newobj",
					"numinlets" : 2,
					"numoutlets" : 4,
					"outlettype" : [ "dictionary", "", "", "" ],
					"patching_rect" : [ 498.361389, 37.0, 167.0, 22.0 ],
					"saved_object_attributes" : 					{
						"embed" : 0,
						"parameter_enable" : 0
					}
,
					"style" : "",
					"text" : "dict mixer.iem.schema.json"
				}

			}
, 			{
				"box" : 				{
					"id" : "obj-7",
					"maxclass" : "newobj",
					"numinlets" : 1,
					"numoutlets" : 1,
					"outlettype" : [ "" ],
					"patching_rect" : [ 419.722778, 7.0, 137.0, 22.0 ],
					"style" : "",
					"text" : "loadmess modName #1"
				}

			}
, 			{
				"box" : 				{
					"id" : "obj-1",
					"maxclass" : "newobj",
					"numinlets" : 1,
					"numoutlets" : 0,
					"patching_rect" : [ 390.0, 72.0, 33.0, 22.0 ],
					"style" : "",
					"text" : "s #1"
				}

			}
, 			{
				"box" : 				{
					"id" : "obj-40",
					"linecount" : 6,
					"maxclass" : "message",
					"numinlets" : 2,
					"numoutlets" : 1,
					"outlettype" : [ "" ],
					"patching_rect" : [ 544.0, 217.0, 145.0, 89.0 ],
					"style" : "",
					"text" : "input [{\\\"faderA\\\":127\\,\\\"panA\\\":0\\,\\\"trim\\\":127}\\,{\\\"faderA\\\":100\\,\\\"panA\\\":127\\,\\\"trim\\\":100}\\,{\\\"faderB\\\":127\\,\\\"panB\\\":64\\,\\\"trim\\\":127}]"
				}

			}
, 			{
				"box" : 				{
					"id" : "obj-38",
					"maxclass" : "newobj",
					"numinlets" : 1,
					"numoutlets" : 1,
					"outlettype" : [ "" ],
					"patching_rect" : [ 554.722778, 172.377625, 101.0, 22.0 ],
					"style" : "",
					"text" : "prepend input #1",
					"varname" : "input"
				}

			}
, 			{
				"box" : 				{
					"id" : "obj-25",
					"maxclass" : "newobj",
					"numinlets" : 1,
					"numoutlets" : 1,
					"outlettype" : [ "" ],
					"patching_rect" : [ 171.0, 165.377625, 131.0, 22.0 ],
					"style" : "",
					"text" : "prepend numInputs #1",
					"varname" : "numInputs"
				}

			}
, 			{
				"box" : 				{
					"id" : "obj-24",
					"maxclass" : "button",
					"numinlets" : 1,
					"numoutlets" : 1,
					"outlettype" : [ "bang" ],
					"patching_rect" : [ 390.0, 7.0, 24.0, 24.0 ],
					"style" : ""
				}

			}
, 			{
				"box" : 				{
					"id" : "obj-22",
					"maxclass" : "newobj",
					"numinlets" : 1,
					"numoutlets" : 1,
					"outlettype" : [ "" ],
					"patching_rect" : [ 390.0, 37.0, 85.0, 22.0 ],
					"saved_object_attributes" : 					{
						"filename" : "testFader.js",
						"parameter_enable" : 0
					}
,
					"style" : "",
					"text" : "js testFader.js"
				}

			}
, 			{
				"box" : 				{
					"id" : "obj-5",
					"maxclass" : "newobj",
					"numinlets" : 1,
					"numoutlets" : 1,
					"outlettype" : [ "" ],
					"patching_rect" : [ 255.0, 8.0, 98.0, 22.0 ],
					"style" : "",
					"text" : "loadmess set #1"
				}

			}
, 			{
				"box" : 				{
					"fontsize" : 18.0,
					"id" : "obj-4",
					"maxclass" : "comment",
					"numinlets" : 1,
					"numoutlets" : 0,
					"patching_rect" : [ 101.861389, 8.0, 140.277222, 27.0 ],
					"style" : "",
					"text" : "#1"
				}

			}
, 			{
				"box" : 				{
					"id" : "obj-20",
					"maxclass" : "newobj",
					"numinlets" : 1,
					"numoutlets" : 0,
					"patching_rect" : [ 544.0, 627.377625, 111.722778, 22.0 ],
					"presentation" : 1,
					"presentation_rect" : [ 615.409912, 157.0, 54.0, 22.0 ],
					"style" : "",
					"text" : "ramp 20",
					"varname" : "ramp[1]"
				}

			}
, 			{
				"box" : 				{
					"id" : "obj-6",
					"maxclass" : "newobj",
					"numinlets" : 1,
					"numoutlets" : 1,
					"outlettype" : [ "" ],
					"patching_rect" : [ 544.0, 598.377625, 83.0, 22.0 ],
					"style" : "",
					"text" : "prepend ramp",
					"varname" : "ramp"
				}

			}
, 			{
				"box" : 				{
					"id" : "obj-89",
					"maxclass" : "newobj",
					"numinlets" : 1,
					"numoutlets" : 1,
					"outlettype" : [ "" ],
					"patching_rect" : [ 24.851318, 158.284973, 87.0, 22.0 ],
					"style" : "",
					"text" : "prepend parse"
				}

			}
, 			{
				"box" : 				{
					"id" : "obj-88",
					"maxclass" : "newobj",
					"numinlets" : 1,
					"numoutlets" : 2,
					"outlettype" : [ "", "" ],
					"patching_rect" : [ 24.851318, 183.284973, 88.0, 22.0 ],
					"saved_object_attributes" : 					{
						"filename" : "modParse.js",
						"parameter_enable" : 0
					}
,
					"style" : "",
					"text" : "js modParse.js"
				}

			}
, 			{
				"box" : 				{
					"fontname" : "Arial",
					"fontsize" : 9.0,
					"id" : "obj-29",
					"maxclass" : "comment",
					"numinlets" : 1,
					"numoutlets" : 0,
					"patching_rect" : [ 8.0, 51.0, 164.0, 17.0 ],
					"style" : "",
					"text" : "Copyright 2017 David Brooke Wetzel"
				}

			}
, 			{
				"box" : 				{
					"fontname" : "Arial",
					"fontsize" : 9.0,
					"id" : "obj-28",
					"maxclass" : "comment",
					"numinlets" : 1,
					"numoutlets" : 0,
					"patching_rect" : [ 8.0, 37.0, 328.0, 17.0 ],
					"presentation" : 1,
					"presentation_rect" : [ 46.0, 27.0, 328.0, 17.0 ],
					"style" : "",
					"text" : "Multi-purpose matrix mixer (n x 8) with scriptable routing"
				}

			}
, 			{
				"box" : 				{
					"bgcolor" : [ 0.843137, 0.741176, 0.431373, 0.423529 ],
					"bordercolor" : [ 0.843137, 0.741176, 0.431373, 1.0 ],
					"fontface" : 1,
					"fontname" : "Geneva",
					"fontsize" : 9.0,
					"id" : "obj-288",
					"keymode" : 1,
					"maxclass" : "textedit",
					"numinlets" : 1,
					"numoutlets" : 4,
					"outlettype" : [ "", "int", "", "" ],
					"parameter_enable" : 0,
					"patching_rect" : [ 6.999939, 92.0, 289.0, 19.0 ],
					"presentation" : 1,
					"presentation_rect" : [ 434.826477, 20.672089, 473.0, 19.0 ],
					"style" : "",
					"textcolor" : [ 0.0, 0.0, 0.0, 1.0 ]
				}

			}
, 			{
				"box" : 				{
					"fontface" : 1,
					"fontname" : "Arial",
					"fontsize" : 12.0,
					"id" : "obj-57",
					"maxclass" : "comment",
					"numinlets" : 1,
					"numoutlets" : 0,
					"patching_rect" : [ 8.0, 68.0, 107.0, 20.0 ],
					"presentation" : 1,
					"presentation_rect" : [ 432.826508, 0.672089, 107.0, 20.0 ],
					"style" : "",
					"text" : "Command line:"
				}

			}
, 			{
				"box" : 				{
					"fontname" : "Arial",
					"fontsize" : 9.0,
					"id" : "obj-58",
					"linecount" : 2,
					"maxclass" : "comment",
					"numinlets" : 1,
					"numoutlets" : 0,
					"patching_rect" : [ 25.851318, 112.377594, 128.0, 27.0 ],
					"style" : "",
					"text" : "mod events from the IEM script are processed here"
				}

			}
, 			{
				"box" : 				{
					"fontname" : "Arial",
					"fontsize" : 9.0,
					"id" : "obj-290",
					"maxclass" : "newobj",
					"numinlets" : 0,
					"numoutlets" : 1,
					"outlettype" : [ "" ],
					"patching_rect" : [ 24.851318, 136.377625, 132.0, 19.0 ],
					"style" : "",
					"text" : "r #1"
				}

			}
, 			{
				"box" : 				{
					"bgcolor" : [ 0.501961, 0.501961, 0.501961, 1.0 ],
					"bgmode" : 2,
					"border" : 0,
					"clickthrough" : 0,
					"enablehscroll" : 1,
					"enablevscroll" : 0,
					"id" : "obj-3",
					"lockeddragscroll" : 0,
					"maxclass" : "bpatcher",
					"name" : "mixer.inputs.iem.maxpat",
					"numinlets" : 1,
					"numoutlets" : 0,
					"offset" : [ 0.0, 0.0 ],
					"patching_rect" : [ 19.0, 217.0, 516.0, 437.0 ],
					"varname" : "mixer.inputs.iem",
					"viewvisibility" : 1
				}

			}
, 			{
				"box" : 				{
					"fontsize" : 18.0,
					"id" : "obj-2",
					"maxclass" : "comment",
					"numinlets" : 1,
					"numoutlets" : 0,
					"patching_rect" : [ 8.0, 8.0, 92.0, 27.0 ],
					"style" : "",
					"text" : "Mixer 2.0:"
				}

			}
 ],
		"lines" : [ 			{
				"patchline" : 				{
					"destination" : [ "obj-1", 0 ],
					"source" : [ "obj-22", 0 ]
				}

			}
, 			{
				"patchline" : 				{
					"destination" : [ "obj-22", 0 ],
					"source" : [ "obj-24", 0 ]
				}

			}
, 			{
				"patchline" : 				{
					"destination" : [ "obj-3", 0 ],
					"midpoints" : [ 180.5, 209.688812, 28.5, 209.688812 ],
					"source" : [ "obj-25", 0 ]
				}

			}
, 			{
				"patchline" : 				{
					"destination" : [ "obj-88", 0 ],
					"midpoints" : [ 16.499939, 182.04248, 34.351318, 182.04248 ],
					"source" : [ "obj-288", 0 ]
				}

			}
, 			{
				"patchline" : 				{
					"destination" : [ "obj-89", 0 ],
					"source" : [ "obj-290", 0 ]
				}

			}
, 			{
				"patchline" : 				{
					"destination" : [ "obj-3", 0 ],
					"midpoints" : [ 564.222778, 209.188812, 28.5, 209.188812 ],
					"order" : 1,
					"source" : [ "obj-38", 0 ]
				}

			}
, 			{
				"patchline" : 				{
					"destination" : [ "obj-40", 1 ],
					"midpoints" : [ 564.222778, 200.688812, 679.5, 200.688812 ],
					"order" : 0,
					"source" : [ "obj-38", 0 ]
				}

			}
, 			{
				"patchline" : 				{
					"destination" : [ "obj-4", 0 ],
					"midpoints" : [ 264.5, 34.5, 247.930695, 34.5, 247.930695, 3.0, 111.361389, 3.0 ],
					"source" : [ "obj-5", 0 ]
				}

			}
, 			{
				"patchline" : 				{
					"destination" : [ "obj-20", 0 ],
					"source" : [ "obj-6", 0 ]
				}

			}
, 			{
				"patchline" : 				{
					"destination" : [ "obj-22", 0 ],
					"source" : [ "obj-7", 0 ]
				}

			}
, 			{
				"patchline" : 				{
					"destination" : [ "obj-88", 0 ],
					"source" : [ "obj-89", 0 ]
				}

			}
 ],
		"dependency_cache" : [ 			{
				"name" : "mixer.inputs.iem.maxpat",
				"bootpath" : "~/Documents/Max 7/Projects/IEM_2.0/IEM 2.0 Prototype/patchers",
				"patcherrelativepath" : ".",
				"type" : "JSON",
				"implicit" : 1
			}
, 			{
				"name" : "mixer.inputs.js",
				"bootpath" : "~/Documents/Max 7/Projects/IEM_2.0/IEM 2.0 Prototype/code",
				"patcherrelativepath" : "../code",
				"type" : "TEXT",
				"implicit" : 1
			}
, 			{
				"name" : "modParse.js",
				"bootpath" : "~/Documents/Max 7/Projects/IEM_2.0/IEM 2.0 Prototype/code",
				"patcherrelativepath" : "../code",
				"type" : "TEXT",
				"implicit" : 1
			}
, 			{
				"name" : "ramp.maxpat",
				"bootpath" : "~/Documents/Max 7/Projects/IEM_2.0/IEM 2.0 Prototype/patchers",
				"patcherrelativepath" : ".",
				"type" : "JSON",
				"implicit" : 1
			}
, 			{
				"name" : "polyramp.maxpat",
				"bootpath" : "~/Documents/Max 7/Projects/IEM_2.0/IEM 2.0 Prototype/patchers",
				"patcherrelativepath" : ".",
				"type" : "JSON",
				"implicit" : 1
			}
, 			{
				"name" : "ramp.js",
				"bootpath" : "~/Documents/Max 7/Projects/IEM_2.0/IEM 2.0 Prototype/code",
				"patcherrelativepath" : "../code",
				"type" : "TEXT",
				"implicit" : 1
			}
, 			{
				"name" : "rampVoiceCounter.js",
				"bootpath" : "~/Documents/Max 7/Projects/IEM_2.0/IEM 2.0 Prototype/code",
				"patcherrelativepath" : "../code",
				"type" : "TEXT",
				"implicit" : 1
			}
, 			{
				"name" : "testFader.js",
				"bootpath" : "~/Documents/Max 7/Projects/IEM_2.0/IEM 2.0 Prototype/patchers",
				"patcherrelativepath" : ".",
				"type" : "TEXT",
				"implicit" : 1
			}
 ],
		"autosave" : 0
	}

}
